<svg xmlns="http://www.w3.org/2000/svg" xmlns:xlink="http://www.w3.org/1999/xlink" width="500" zoomAndPan="magnify" viewBox="0 0 375 374.999991" height="500" preserveAspectRatio="xMidYMid meet" version="1.2"><defs><clipPath id="6a7fb1ad05"><path d="M 0.988281 0.238281 L 237.839844 0.238281 L 237.839844 282.574219 L 0.988281 282.574219 Z M 0.988281 0.238281 "/></clipPath><clipPath id="10969bcc2d"><path d="M 160.148438 50.453125 C 157.761719 43.65625 150.0625 36.84375 143.027344 35.3125 L 13.777344 0.574219 C 6.742188 -0.957031 0.988281 3.679688 0.988281 10.878906 L 0.988281 269.265625 C 0.988281 276.46875 6.878906 282.359375 14.078125 282.359375 L 228.386719 282.359375 C 235.585938 282.359375 239.523438 276.796875 237.144531 270.007812 Z M 160.148438 50.453125 "/></clipPath><clipPath id="27fbed69e9"><path d="M 0.988281 0.238281 L 237.839844 0.238281 L 237.839844 282.480469 L 0.988281 282.480469 Z M 0.988281 0.238281 "/></clipPath><clipPath id="506a3353a7"><path d="M 160.148438 50.453125 C 157.761719 43.65625 150.0625 36.84375 143.027344 35.3125 L 13.777344 0.574219 C 6.742188 -0.957031 0.988281 3.679688 0.988281 10.878906 L 0.988281 269.265625 C 0.988281 276.46875 6.878906 282.359375 14.078125 282.359375 L 228.386719 282.359375 C 235.585938 282.359375 239.523438 276.796875 237.144531 270.007812 Z M 160.148438 50.453125 "/></clipPath><clipPath id="78c2c51536"><rect x="0" width="238" y="0" height="283"/></clipPath><clipPath id="10f79b7b09"><path d="M 181.851562 44.222656 L 369.96875 44.222656 L 369.96875 326.878906 L 181.851562 326.878906 Z M 181.851562 44.222656 "/></clipPath><clipPath id="1e6563cfe2"><path d="M 259.542969 276.511719 C 261.929688 283.308594 269.628906 290.121094 276.664062 291.652344 L 357.179688 326.390625 C 364.214844 327.921875 369.96875 323.285156 369.96875 316.085938 L 369.96875 57.695312 C 369.96875 50.496094 364.078125 44.605469 356.878906 44.605469 L 191.304688 44.605469 C 184.105469 44.605469 180.167969 50.167969 182.546875 56.957031 Z M 259.542969 276.511719 "/></clipPath><clipPath id="6d606a01c7"><path d="M 0.851562 0.398438 L 188.96875 0.398438 L 188.96875 282.878906 L 0.851562 282.878906 Z M 0.851562 0.398438 "/></clipPath><clipPath id="633e118930"><path d="M 78.542969 232.511719 C 80.929688 239.308594 88.628906 246.121094 95.664062 247.652344 L 176.179688 282.390625 C 183.214844 283.921875 188.96875 279.285156 188.96875 272.085938 L 188.96875 13.695312 C 188.96875 6.496094 183.078125 0.605469 175.878906 0.605469 L 10.304688 0.605469 C 3.105469 0.605469 -0.832031 6.167969 1.546875 12.957031 Z M 78.542969 232.511719 "/></clipPath><clipPath id="c618a99af7"><rect x="0" width="189" y="0" height="283"/></clipPath><filter x="0%" y="0%" width="100%" filterUnits="objectBoundingBox" id="19400684af" height="100%"><feColorMatrix values="0 0 0 0 1 0 0 0 0 1 0 0 0 0 1 0 0 0 1 0" type="matrix" in="SourceGraphic"/></filter><clipPath id="dd00a86716"><path d="M 0.742188 0.984375 L 275.140625 0.984375 L 275.140625 26.078125 L 0.742188 26.078125 Z M 0.742188 0.984375 "/></clipPath><clipPath id="94e9c541ff"><path d="M 13.289062 0.984375 L 262.496094 0.984375 C 269.429688 0.984375 275.046875 6.601562 275.046875 13.53125 C 275.046875 20.460938 269.429688 26.078125 262.496094 26.078125 L 13.289062 26.078125 C 6.359375 26.078125 0.742188 20.460938 0.742188 13.53125 C 0.742188 6.601562 6.359375 0.984375 13.289062 0.984375 Z M 13.289062 0.984375 "/></clipPath><clipPath id="453c9551e5"><path d="M 0.742188 0.984375 L 275.121094 0.984375 L 275.121094 26.078125 L 0.742188 26.078125 Z M 0.742188 0.984375 "/></clipPath><clipPath id="11a612e40e"><path d="M 13.289062 0.984375 L 262.496094 0.984375 C 269.429688 0.984375 275.046875 6.601562 275.046875 13.53125 C 275.046875 20.460938 269.429688 26.078125 262.496094 26.078125 L 13.289062 26.078125 C 6.359375 26.078125 0.742188 20.460938 0.742188 13.53125 C 0.742188 6.601562 6.359375 0.984375 13.289062 0.984375 Z M 13.289062 0.984375 "/></clipPath><clipPath id="6a99f5fc3c"><rect x="0" width="276" y="0" height="27"/></clipPath><clipPath id="2c2a95a019"><rect x="0" width="276" y="0" height="27"/></clipPath><clipPath id="5bf8f0505b"><path d="M 0.742188 0.449219 L 249.554688 0.449219 L 249.554688 25.546875 L 0.742188 25.546875 Z M 0.742188 0.449219 "/></clipPath><clipPath id="e87c60a699"><path d="M 13.289062 0.449219 L 236.921875 0.449219 C 243.851562 0.449219 249.472656 6.066406 249.472656 13 C 249.472656 19.929688 243.851562 25.546875 236.921875 25.546875 L 13.289062 25.546875 C 6.359375 25.546875 0.742188 19.929688 0.742188 13 C 0.742188 6.066406 6.359375 0.449219 13.289062 0.449219 Z M 13.289062 0.449219 "/></clipPath><clipPath id="c49d429a6e"><path d="M 0.742188 0.449219 L 249.554688 0.449219 L 249.554688 25.546875 L 0.742188 25.546875 Z M 0.742188 0.449219 "/></clipPath><clipPath id="8a6bc9c778"><path d="M 13.289062 0.449219 L 236.921875 0.449219 C 243.851562 0.449219 249.472656 6.066406 249.472656 13 C 249.472656 19.929688 243.851562 25.546875 236.921875 25.546875 L 13.289062 25.546875 C 6.359375 25.546875 0.742188 19.929688 0.742188 13 C 0.742188 6.066406 6.359375 0.449219 13.289062 0.449219 Z M 13.289062 0.449219 "/></clipPath><clipPath id="3fdc5f7616"><rect x="0" width="250" y="0" height="26"/></clipPath><clipPath id="560289918f"><rect x="0" width="250" y="0" height="26"/></clipPath><clipPath id="e96d69fc46"><path d="M 0.742188 0.183594 L 216.320312 0.183594 L 216.320312 25.28125 L 0.742188 25.28125 Z M 0.742188 0.183594 "/></clipPath><clipPath id="4d42b5c07c"><path d="M 13.289062 0.183594 L 203.691406 0.183594 C 210.621094 0.183594 216.238281 5.804688 216.238281 12.734375 C 216.238281 19.664062 210.621094 25.28125 203.691406 25.28125 L 13.289062 25.28125 C 6.359375 25.28125 0.742188 19.664062 0.742188 12.734375 C 0.742188 5.804688 6.359375 0.183594 13.289062 0.183594 Z M 13.289062 0.183594 "/></clipPath><clipPath id="598e62f428"><path d="M 0.742188 0.183594 L 216.320312 0.183594 L 216.320312 25.28125 L 0.742188 25.28125 Z M 0.742188 0.183594 "/></clipPath><clipPath id="301fa6fdbb"><path d="M 13.289062 0.183594 L 203.691406 0.183594 C 210.621094 0.183594 216.238281 5.804688 216.238281 12.734375 C 216.238281 19.664062 210.621094 25.28125 203.691406 25.28125 L 13.289062 25.28125 C 6.359375 25.28125 0.742188 19.664062 0.742188 12.734375 C 0.742188 5.804688 6.359375 0.183594 13.289062 0.183594 Z M 13.289062 0.183594 "/></clipPath><clipPath id="800e75b16d"><rect x="0" width="217" y="0" height="26"/></clipPath><clipPath id="e4239cc75b"><rect x="0" width="217" y="0" height="26"/></clipPath><clipPath id="7c703e22c4"><path d="M 0.742188 0.921875 L 127.894531 0.921875 L 127.894531 26.015625 L 0.742188 26.015625 Z M 0.742188 0.921875 "/></clipPath><clipPath id="8da1470565"><path d="M 13.289062 0.921875 L 115.277344 0.921875 C 122.207031 0.921875 127.824219 6.539062 127.824219 13.46875 C 127.824219 20.398438 122.207031 26.015625 115.277344 26.015625 L 13.289062 26.015625 C 6.359375 26.015625 0.742188 20.398438 0.742188 13.46875 C 0.742188 6.539062 6.359375 0.921875 13.289062 0.921875 Z M 13.289062 0.921875 "/></clipPath><clipPath id="1f7843421c"><path d="M 0.742188 0.921875 L 127.894531 0.921875 L 127.894531 26.015625 L 0.742188 26.015625 Z M 0.742188 0.921875 "/></clipPath><clipPath id="dc324dea7e"><path d="M 13.289062 0.921875 L 115.277344 0.921875 C 122.207031 0.921875 127.824219 6.539062 127.824219 13.46875 C 127.824219 20.398438 122.207031 26.015625 115.277344 26.015625 L 13.289062 26.015625 C 6.359375 26.015625 0.742188 20.398438 0.742188 13.46875 C 0.742188 6.539062 6.359375 0.921875 13.289062 0.921875 Z M 13.289062 0.921875 "/></clipPath><clipPath id="280fefe3d0"><rect x="0" width="128" y="0" height="27"/></clipPath><clipPath id="fa5ffb7a54"><rect x="0" width="128" y="0" height="27"/></clipPath><clipPath id="da191c114a"><path d="M 329.066406 270.949219 L 352.238281 270.949219 L 352.238281 293.765625 L 329.066406 293.765625 Z M 329.066406 270.949219 "/></clipPath><clipPath id="4b4576ed22"><path d="M 340.625 270.949219 C 334.242188 270.949219 329.066406 276.054688 329.066406 282.359375 C 329.066406 288.660156 334.242188 293.765625 340.625 293.765625 C 347.007812 293.765625 352.183594 288.660156 352.183594 282.359375 C 352.183594 276.054688 347.007812 270.949219 340.625 270.949219 Z M 340.625 270.949219 "/></clipPath><clipPath id="4c51c3ee74"><path d="M 0.0664062 0.949219 L 23.238281 0.949219 L 23.238281 23.765625 L 0.0664062 23.765625 Z M 0.0664062 0.949219 "/></clipPath><clipPath id="9ac4e99dbb"><path d="M 11.625 0.949219 C 5.242188 0.949219 0.0664062 6.054688 0.0664062 12.359375 C 0.0664062 18.660156 5.242188 23.765625 11.625 23.765625 C 18.007812 23.765625 23.183594 18.660156 23.183594 12.359375 C 23.183594 6.054688 18.007812 0.949219 11.625 0.949219 Z M 11.625 0.949219 "/></clipPath><clipPath id="16031335c4"><rect x="0" width="24" y="0" height="24"/></clipPath><clipPath id="01d4536e17"><rect x="0" width="370" y="0" height="327"/></clipPath></defs><g id="90ddbf0656"><g transform="matrix(1,0,0,1,2,24)"><g clip-path="url(#01d4536e17)"><g clip-rule="nonzero" clip-path="url(#6a7fb1ad05)"><g clip-rule="nonzero" clip-path="url(#10969bcc2d)"><g transform="matrix(1,0,0,1,-0.000000000000000444,0)"><g id="80ccc7f4fa" clip-path="url(#78c2c51536)"><g clip-rule="nonzero" clip-path="url(#27fbed69e9)"><g clip-rule="nonzero" clip-path="url(#506a3353a7)"><path style=" stroke:none;fill-rule:nonzero;fill:#51a2ff;fill-opacity:1;" d="M 0.988281 0.28125 L 237.839844 0.28125 L 237.839844 282.574219 L 0.988281 282.574219 Z M 0.988281 0.28125 "/></g></g></g></g></g></g><g clip-rule="nonzero" clip-path="url(#10f79b7b09)"><g clip-rule="nonzero" clip-path="url(#1e6563cfe2)"><g transform="matrix(1,0,0,1,181,44)"><g id="e353fc6dc3" clip-path="url(#c618a99af7)"><g clip-rule="nonzero" clip-path="url(#6d606a01c7)"><g clip-rule="nonzero" clip-path="url(#633e118930)"><path style=" stroke:none;fill-rule:nonzero;fill:#155dfc;fill-opacity:1;" d="M 188.96875 282.683594 L 0.851562 282.683594 L 0.851562 0.792969 L 188.96875 0.792969 Z M 188.96875 282.683594 "/></g></g></g></g></g></g><g mask="url(#c9bcd45c07)" transform="matrix(1,0,0,1,44,88)"><g id="0d7246feb0" clip-path="url(#2c2a95a019)"><g clip-rule="nonzero" clip-path="url(#dd00a86716)"><g clip-rule="nonzero" clip-path="url(#94e9c541ff)"><g><g id="d66244c4c8" clip-path="url(#6a99f5fc3c)"><g clip-rule="nonzero" clip-path="url(#453c9551e5)"><g clip-rule="nonzero" clip-path="url(#11a612e40e)"><path style=" stroke:none;fill-rule:nonzero;fill:#fdfdfd;fill-opacity:1;" d="M 0.742188 0.984375 L 275.042969 0.984375 L 275.042969 26.078125 L 0.742188 26.078125 Z M 0.742188 0.984375 "/></g></g></g></g></g></g></g><mask id="c9bcd45c07"><g filter="url(#19400684af)"><rect x="0" width="370" height="327" y="0" style="fill:#000000;fill-opacity:0.37;stroke:none;"/></g></mask></g><g mask="url(#1ce99047a5)" transform="matrix(1,0,0,1,44,131)"><g id="2328f742de" clip-path="url(#560289918f)"><g clip-rule="nonzero" clip-path="url(#5bf8f0505b)"><g clip-rule="nonzero" clip-path="url(#e87c60a699)"><g transform="matrix(1,0,0,1,0,-0.000000000000028422)"><g id="554fc67f21" clip-path="url(#3fdc5f7616)"><g clip-rule="nonzero" clip-path="url(#c49d429a6e)"><g clip-rule="nonzero" clip-path="url(#8a6bc9c778)"><path style=" stroke:none;fill-rule:nonzero;fill:#fdfdfd;fill-opacity:1;" d="M 0.742188 0.449219 L 249.457031 0.449219 L 249.457031 25.546875 L 0.742188 25.546875 Z M 0.742188 0.449219 "/></g></g></g></g></g></g></g><mask id="1ce99047a5"><g filter="url(#19400684af)"><rect x="0" width="370" height="327" y="0" style="fill:#000000;fill-opacity:0.37;stroke:none;"/></g></mask></g><g mask="url(#c16e0d8158)" transform="matrix(1,0,0,1,44,172)"><g id="652437ff1b" clip-path="url(#e4239cc75b)"><g clip-rule="nonzero" clip-path="url(#e96d69fc46)"><g clip-rule="nonzero" clip-path="url(#4d42b5c07c)"><g><g id="fb649a37b1" clip-path="url(#800e75b16d)"><g clip-rule="nonzero" clip-path="url(#598e62f428)"><g clip-rule="nonzero" clip-path="url(#301fa6fdbb)"><path style=" stroke:none;fill-rule:nonzero;fill:#fdfdfd;fill-opacity:1;" d="M 0.742188 0.183594 L 216.222656 0.183594 L 216.222656 25.28125 L 0.742188 25.28125 Z M 0.742188 0.183594 "/></g></g></g></g></g></g></g><mask id="c16e0d8158"><g filter="url(#19400684af)"><rect x="0" width="370" height="327" y="0" style="fill:#000000;fill-opacity:0.37;stroke:none;"/></g></mask></g><g mask="url(#e2762238b0)" transform="matrix(1,0,0,1,44,212)"><g id="7082ef5ecd" clip-path="url(#fa5ffb7a54)"><g clip-rule="nonzero" clip-path="url(#7c703e22c4)"><g clip-rule="nonzero" clip-path="url(#8da1470565)"><g><g id="264c1815b5" clip-path="url(#280fefe3d0)"><g clip-rule="nonzero" clip-path="url(#1f7843421c)"><g clip-rule="nonzero" clip-path="url(#dc324dea7e)"><path style=" stroke:none;fill-rule:nonzero;fill:#fdfdfd;fill-opacity:1;" d="M 0.742188 0.921875 L 127.796875 0.921875 L 127.796875 26.015625 L 0.742188 26.015625 Z M 0.742188 0.921875 "/></g></g></g></g></g></g></g><mask id="e2762238b0"><g filter="url(#19400684af)"><rect x="0" width="370" height="327" y="0" style="fill:#000000;fill-opacity:0.37;stroke:none;"/></g></mask></g><g clip-rule="nonzero" clip-path="url(#da191c114a)"><g clip-rule="nonzero" clip-path="url(#4b4576ed22)"><g transform="matrix(1,0,0,1,329,270)"><g id="189d7f8c66" clip-path="url(#16031335c4)"><g clip-rule="nonzero" clip-path="url(#4c51c3ee74)"><g clip-rule="nonzero" clip-path="url(#9ac4e99dbb)"><path style=" stroke:none;fill-rule:nonzero;fill:#fdfdfd;fill-opacity:1;" d="M 0.0664062 0.949219 L 23.152344 0.949219 L 23.152344 23.765625 L 0.0664062 23.765625 Z M 0.0664062 0.949219 "/></g></g></g></g></g></g></g></g></g></svg>